<svg width="19" height="17" viewBox="0 0 19 17" fill="none" xmlns="http://www.w3.org/2000/svg">
<path d="M17.3909 6.39097L15.9054 13.8185C15.7221 14.7349 15.6305 15.193 15.3913 15.5357C15.1803 15.838 14.8899 16.076 14.5522 16.2236C14.1692 16.391 13.702 16.391 12.7675 16.391H6.01427C5.0798 16.391 4.61256 16.391 4.22959 16.2236C3.89187 16.076 3.6015 15.838 3.39054 15.5357C3.15131 15.193 3.05968 14.7349 2.87641 13.8185L1.3909 6.39097M17.3909 6.39097H15.3909M17.3909 6.39097H18.3909M1.3909 6.39097H0.3909M1.3909 6.39097H3.3909M3.3909 6.39097H15.3909M3.3909 6.39097L6.3909 0.39097M15.3909 6.39097L12.3909 0.39097M6.3909 9.39097V12.391M9.3909 9.39097V12.391M12.3909 9.39097V12.391" stroke="#231F20" stroke-width="0.781769" stroke-linecap="round" stroke-linejoin="round"/>
</svg>
