<svg width="21" height="21" viewBox="0 0 21 21" fill="none" xmlns="http://www.w3.org/2000/svg">
<path d="M18.0771 3.5498C18.214 3.5498 18.562 3.56774 18.8682 3.73828L18.9961 3.82129L19.0039 3.82715C19.3043 4.06229 19.3711 4.37379 19.4014 4.51562C19.4358 4.67739 19.4684 4.99347 19.4355 5.26172L19.4365 5.2627C19.1856 7.74904 18.1047 13.743 17.5527 16.4893C17.3058 17.7161 16.7691 18.3762 16.0195 18.4424H16.0156C15.4104 18.4911 14.8955 18.2996 14.4365 18.0479C14.2088 17.9229 13.9869 17.7783 13.7725 17.6357C13.5539 17.4904 13.3444 17.348 13.1221 17.2109C11.6754 16.3269 10.8091 15.7377 9.42188 14.8779C8.99014 14.6122 8.67014 14.3386 8.49707 14.0293C8.30282 13.6821 8.31786 13.3358 8.46191 13.0283C8.58964 12.7559 8.81562 12.5196 9.02441 12.3213C9.13288 12.2183 9.25084 12.1127 9.36426 12.0107C9.47957 11.9071 9.59338 11.8043 9.7041 11.6973L9.70898 11.6924L10.5283 10.9746C10.9654 10.5934 11.5217 10.1066 12.0645 9.625C12.4399 9.29189 12.81 8.95742 13.1377 8.65723C12.9582 8.76789 12.7578 8.8892 12.5391 9.02539C11.3781 9.74823 9.67161 10.8261 7.41504 12.2578C6.71238 12.7108 6.03047 12.965 5.36914 12.9492C5.02202 12.9416 4.55176 12.8543 4.08496 12.7451C3.60849 12.6337 3.10162 12.4917 2.66797 12.3604V12.3594C2.1835 12.2139 1.66504 12.0806 1.30078 11.915C1.11437 11.8303 0.916112 11.7161 0.769531 11.5469C0.606889 11.359 0.523327 11.12 0.557617 10.8496L0.558594 10.8418C0.606736 10.5104 0.85082 10.2728 1.08496 10.1084C1.33232 9.93473 1.66559 9.77455 2.0625 9.62109C6.89177 7.65223 10.1113 6.34227 11.7295 5.70605L13.291 5.09766C14.6957 4.55412 15.6525 4.19701 16.3311 3.96582C17.2291 3.65985 17.6831 3.55784 18.0684 3.5498H18.0771Z" stroke="#231F20" stroke-width="0.9"/>
</svg>
