<svg width="18" height="16" viewBox="0 0 18 16" fill="none" xmlns="http://www.w3.org/2000/svg">
<path d="M8.2869 14.9392C8.33654 14.9901 8.39586 15.0306 8.46136 15.0582C8.52686 15.0858 8.59723 15.1 8.66831 15.1C8.7394 15.1 8.80976 15.0858 8.87527 15.0582C8.94077 15.0306 9.00008 14.9901 9.04972 14.9392L15.9022 7.99603C17.6814 6.19398 17.6814 3.26056 15.9022 1.4578C15.038 0.582126 13.8888 0.100009 12.6652 0.100009C11.4417 0.100009 10.2932 0.582126 9.42899 1.45708L8.66831 2.22847L7.90764 1.4578C7.48611 1.02697 6.9826 0.684874 6.42679 0.451683C5.87098 0.218491 5.27412 0.0989171 4.67138 0.100009C4.06852 0.098862 3.47153 0.218408 2.9156 0.4516C2.35967 0.684792 1.85604 1.02691 1.4344 1.4578C-0.344792 3.26056 -0.344792 6.19398 1.4344 7.99531L8.2869 14.9392ZM2.1965 2.2099C2.51888 1.88063 2.90382 1.61914 3.32871 1.4408C3.7536 1.26245 4.20986 1.17085 4.67066 1.17138C5.6049 1.17138 6.48343 1.54065 7.14411 2.21061L8.28619 3.3677C8.38888 3.46563 8.52534 3.52027 8.66724 3.52027C8.80915 3.52027 8.9456 3.46563 9.04829 3.3677L10.1904 2.2099C10.513 1.88077 10.8981 1.61938 11.3231 1.44105C11.7481 1.26272 12.2044 1.17103 12.6652 1.17138C13.1261 1.17085 13.5823 1.26245 14.0072 1.4408C14.4321 1.61914 14.817 1.88063 15.1394 2.2099C16.5086 3.59768 16.5086 5.85542 15.1394 7.24392L8.66831 13.8014L2.1965 7.24321C0.82729 5.85614 0.82729 3.59768 2.1965 2.2099Z" fill="#231F20" stroke="white" stroke-width="0.2"/>
</svg>
