<svg width="100" height="28" viewBox="0 0 100 28" fill="none" xmlns="http://www.w3.org/2000/svg">
<g clip-path="url(#clip0_2261_819)">
<path d="M45.9934 0.344033C46.2105 0.484417 46.945 0.97691 47.278 1.43296C47.4269 1.61648 47.5189 1.83835 47.5429 2.07198C47.5938 2.60647 47.6111 3.14346 47.5945 3.67987C47.5201 6.64729 46.5189 10.5633 45.9292 12.6351C45.6023 13.781 45.2528 14.8475 44.8949 15.8041C45.8692 14.7681 46.7815 14.1371 47.6774 13.8805C48.0723 13.769 48.4859 13.7365 48.8937 13.785C49.0138 13.7907 49.1242 13.8519 49.1916 13.9499C49.3074 14.1411 49.2185 14.4606 49.1171 14.7518C48.1179 17.597 47.5821 19.8888 47.3752 22.1825C47.2614 23.4669 47.2388 25.2395 47.7891 26.3875C48 26.8249 48.2939 27.053 48.7076 27.0856C48.7399 27.0875 48.7723 27.0875 48.8047 27.0856C49.6487 27.0856 50.3212 26.2245 50.89 24.4398C50.7466 22.7262 50.835 21.0015 51.1528 19.3108C51.5314 17.3122 52.2015 15.7124 53.0912 14.6825C53.4113 14.3041 53.7938 13.9815 54.2228 13.728C54.6902 13.4778 54.8516 13.4837 55.3667 13.7769C55.9184 14.1032 56.417 14.5094 56.8458 14.9817C56.9882 15.155 57.0689 15.3695 57.0754 15.5923C57.0838 15.6453 57.0899 15.6982 57.1004 15.7573C57.1312 15.9548 57.162 16.2338 57.1947 16.6011L57.2017 16.6813L57.6029 16.9498C57.6939 17.0109 57.6961 17.0516 57.661 17.1655C57.3656 18.0506 57.1923 18.9706 57.1458 19.9011C57.1189 20.882 57.3423 21.5373 57.7891 21.7959C57.962 21.9071 58.1748 21.9412 58.3746 21.8895C58.6684 21.8039 58.9456 21.509 59.2021 21.0101C59.709 20.0252 59.9799 18.9119 60.1867 17.8555C60.3047 17.2756 60.4206 16.6201 60.5343 15.9851C60.6528 15.3227 60.7764 14.6401 60.8988 14.0291L60.9359 13.8481V13.8174C60.9729 13.6446 61.0142 13.5326 61.0536 13.5203C61.0891 13.5094 61.1361 13.5265 61.207 13.5819L61.2316 13.6018L61.455 13.7829C61.6577 13.9478 61.8686 14.1189 62.0466 14.2756C62.2659 14.4994 62.2906 14.5381 62.2349 14.8394C62.1686 15.1934 62.1004 15.5476 62.0281 15.9241C61.6721 17.7598 61.2707 19.842 61.1053 21.6879C60.9916 22.9396 60.8509 24.509 61.124 25.7584C61.2249 26.2193 61.6249 27.0227 62.0653 27.0616L62.0984 27.0631H62.152C62.9298 26.9452 63.7076 25.5876 64.014 24.7612C64.3876 23.7118 64.6646 22.6315 64.8415 21.5333C65.2551 19.1947 65.6916 16.7077 66.0826 14.2063C66.1054 14.0537 66.1261 13.9866 66.184 13.9681C66.236 13.9517 66.2951 13.9864 66.3665 14.0483L66.3908 14.07L66.5978 14.2552C66.8191 14.4424 67.0322 14.6256 67.1957 14.8007C67.3499 14.966 67.3511 15.0187 67.316 15.1955L67.3093 15.2281V15.2565C67.2017 15.8102 67.0838 16.3738 66.9577 16.9845C66.755 17.9553 66.5481 18.9608 66.3743 19.9377C66.1696 21.0917 65.913 22.5429 65.9378 23.7375C65.9565 24.686 66.1943 25.9886 66.9144 26.652C67.6341 27.3155 68.4162 26.9878 68.9477 26.5808C69.3255 26.2786 69.6504 25.9176 69.9097 25.5122C69.285 23.9778 68.9994 21.9648 69.1279 19.9906C69.2663 17.9227 69.8271 16.0666 70.7146 14.7681C70.9527 14.4055 71.2432 14.0791 71.5772 13.7992C71.9351 13.5184 72.268 13.3943 72.7316 13.6995C73.0701 13.9115 73.3955 14.1434 73.7058 14.3937C73.8513 14.5051 73.9708 14.646 74.0561 14.8068C74.1414 14.9676 74.1906 15.1446 74.2004 15.3258C74.2801 16.082 74.2725 16.8447 74.1776 17.5991C73.9847 19.0471 73.5718 20.4584 72.9528 21.7857C72.3522 23.1172 71.6445 24.3994 70.8366 25.6202C70.9293 25.9342 71.0988 26.2211 71.3303 26.4556C71.5619 26.6902 71.8484 26.8653 72.1647 26.9655C72.4115 27.0271 72.6702 27.0258 72.9163 26.9617C73.1624 26.8976 73.3878 26.7729 73.5713 26.5992C74.9782 25.3718 75.8014 23.6561 76.6746 21.2869C76.6624 18.2732 77.0068 14.3507 77.6033 10.7506L77.6427 10.5163L48.244 10.1216C48.1883 10.1195 48.1511 10.1155 48.1366 10.093C48.122 10.0706 48.1366 10.038 48.1635 9.99138C48.2779 9.78846 48.3972 9.58825 48.5212 9.39091C48.5805 9.30077 48.6045 9.28351 48.7021 9.28121L48.7283 9.28102H48.8731C58.3746 9.27488 68.1969 9.26875 77.8639 9.19951C78.2136 7.20307 78.6191 5.23885 79.0017 3.66357C79.0246 3.57401 79.0555 3.52318 79.099 3.50477C79.1274 3.49774 79.1571 3.49719 79.1858 3.50318C79.2145 3.50916 79.2414 3.52151 79.2645 3.53929C79.6837 3.78882 80.0772 4.07785 80.4396 4.40231C80.5657 4.51833 80.5594 4.56724 80.5244 4.72201C80.4787 4.9274 80.4333 5.11899 80.3899 5.32228C80.1054 6.55217 79.8665 7.62058 79.6004 8.99143L79.5624 9.18935L82.7255 9.17305C83.0731 7.19886 83.4516 5.44042 83.9169 3.64113C83.9335 3.57209 83.9626 3.52932 84.0019 3.51494C84.0258 3.50936 84.0505 3.50877 84.0746 3.5132C84.0987 3.51762 84.1215 3.52697 84.1417 3.54064L84.1612 3.55579L84.2973 3.64324C84.6577 3.87997 84.9988 4.14403 85.3175 4.43299C85.4183 4.50491 85.4544 4.63628 85.4045 4.74847C85.0113 6.41524 84.755 7.52047 84.4487 9.16077C89.1037 9.15694 93.5121 9.12491 98.1292 9.09077L99.122 9.08349H99.7179L99.7538 9.08406C99.8805 9.08809 99.9546 9.11475 99.9848 9.16691C100.016 9.21792 99.9992 9.29924 99.9372 9.4214C99.685 9.85751 99.3972 10.2727 99.0766 10.663C99.0242 10.7341 98.9548 10.7913 98.8746 10.8298C98.7944 10.8683 98.7057 10.8867 98.6166 10.8835L98.578 10.8807H98.5614C96.5464 10.8474 94.5314 10.8108 92.5166 10.7708C89.7715 10.72 86.9559 10.667 84.186 10.6262C83.5758 14.2531 82.4587 20.9938 83.5653 25.1052C83.7433 25.7726 84.2645 26.931 85.0819 27.0346C85.1216 27.0367 85.1618 27.0367 85.2017 27.0346C85.8284 27.0346 86.5507 26.4343 87.3491 25.2456C86.5592 23.6157 86.168 21.8265 86.207 20.0211C86.2156 19.1053 86.3394 18.194 86.5754 17.308C86.7997 16.4532 87.157 15.6376 87.6345 14.8902C87.8963 14.491 88.2123 14.1288 88.5737 13.8136C88.9772 13.4735 89.368 13.4185 89.7819 13.6772C90.1292 13.8768 90.463 14.0984 90.7811 14.3408C90.9258 14.4481 91.045 14.5854 91.13 14.7429C91.2151 14.9004 91.2641 15.0744 91.2735 15.2525C91.4596 16.435 91.2175 18.1446 90.9548 19.2477C90.5411 21.0408 89.6495 23.0169 88.2655 25.2863C88.9279 26.482 89.6973 27.0925 90.5546 27.1172L90.6092 27.1182H90.6238C91.4637 27.1099 92.3863 26.5482 93.3649 25.4491C94.3028 24.3476 95.1068 23.1421 95.7604 21.857C95.8033 21.7763 95.8325 21.717 95.8729 21.7061L95.8865 21.7042H95.8969C95.932 21.7042 95.9715 21.7287 96.0273 21.7876C96.2376 21.9992 96.4248 22.2319 96.5858 22.4819C96.6665 22.6303 96.6893 22.6934 96.6045 22.8338C95.8595 24.1129 94.9291 25.2785 93.8427 26.2939C92.7731 27.249 91.7487 27.7507 90.7945 27.786L90.7232 27.7879H90.686C89.5895 27.7879 88.6275 27.1569 87.8228 25.9092C87.4339 26.4546 86.8567 27.169 86.236 27.5029C85.9289 27.6723 85.5855 27.7679 85.2337 27.7819L85.1583 27.7836H85.1251C84.7037 27.7762 84.2951 27.6396 83.9563 27.3928C83.2246 26.8618 82.6014 25.7611 82.2741 24.433L82.2516 24.34L82.2033 24.4977C81.9878 25.1794 81.7004 25.8371 81.3458 26.46L81.263 26.6032C80.7456 27.403 80.154 27.7917 79.4569 27.7917C78.5446 27.7917 77.8516 27.2118 77.3881 26.068C77.0487 25.1441 76.8467 24.1768 76.7883 23.1961C76.3609 24.2361 75.8051 25.2204 75.1333 26.1269C74.3045 27.1951 73.4774 27.7539 72.668 27.7902L72.6115 27.7917H72.5246C71.5316 27.7917 70.8696 27.3564 70.2491 26.2977C69.6446 26.9642 68.8306 27.7219 67.8189 27.756L67.7479 27.7572H67.7251C66.9493 27.7489 66.2895 27.3481 65.768 26.5666C65.348 25.8921 65.0637 25.1445 64.9304 24.3644C64.6235 25.1931 64.2187 25.9835 63.7244 26.7193C63.1926 27.4417 62.6197 27.7917 61.999 27.7917C61.7811 27.7924 61.5657 27.747 61.3672 27.6585C61.1688 27.57 60.992 27.4405 60.8489 27.2789C60.3109 26.6947 59.9592 25.6263 59.8144 24.1059C59.7298 23.1528 59.7215 22.1946 59.7897 21.2403C59.4524 21.9608 58.9622 22.4512 58.4037 22.6223C58.1946 22.6865 57.9737 22.7052 57.7565 22.677C57.5393 22.6489 57.3309 22.5746 57.1458 22.4592C56.94 23.7 56.5202 24.8971 55.9047 25.9987C55.4244 26.8023 54.6602 27.7522 53.6898 27.7906L53.629 27.7917H53.5939C53.2926 27.7825 52.9966 27.7102 52.7258 27.5797C52.4551 27.4492 52.2157 27.2634 52.0236 27.0347C51.6208 26.5585 51.3254 26.0035 51.1569 25.4065C50.9672 25.9581 50.6961 26.4793 50.3522 26.9532C50.1707 27.2042 49.9325 27.4103 49.6563 27.5553C49.3802 27.7003 49.0735 27.7803 48.7606 27.789L48.6973 27.7898L48.6355 27.7888C47.8978 27.7668 47.2879 27.3464 46.823 26.5543C46.4495 25.8676 46.2142 25.1164 46.1298 24.342C45.8629 21.9993 46.2912 18.4988 47.247 15.2076C47.2719 15.1039 47.2698 15.0408 47.2366 15.0143C47.2119 14.9873 47.1665 14.9873 47.1002 15.0143C46.4339 15.2646 45.5631 15.9912 44.93 16.8055C44.1522 17.8178 43.5678 19.0367 43.0115 20.2097L42.9359 20.3692L42.6357 21.0021C41.4904 23.3936 40.921 25.5584 40.9456 27.4407L40.9477 27.5558V27.6066C40.9497 27.6738 40.9518 27.7083 40.9312 27.7307C40.9129 27.7507 40.8797 27.7528 40.813 27.7532H40.5444C40.3706 27.7532 40.354 27.7307 40.3374 27.5495C40.2426 26.775 40.2026 25.995 40.2175 25.2151C39.7789 26.072 39.3591 26.6602 38.8978 27.0672C38.4149 27.5087 37.7828 27.7588 37.1236 27.7691L37.0503 27.7695H36.9821C36.5371 27.7572 36.1138 27.5781 35.7988 27.2687C35.3575 26.8145 35.0636 26.2413 34.9548 25.6221C34.6719 26.1554 34.3139 26.6467 33.8914 27.0815C33.7018 27.2912 33.4696 27.4595 33.2098 27.5755C32.9501 27.6915 32.6685 27.7527 32.3832 27.7551C31.5704 27.7551 31.0511 27.4112 30.6951 26.6399C30.085 25.3271 30.0333 23.6845 29.9918 22.3657C29.9029 19.4533 30.2959 15.5557 30.5668 13.7829C30.5918 13.6222 30.6084 13.5591 30.6725 13.5286C30.7366 13.4979 30.8359 13.5529 30.991 13.6486C31.2704 13.8197 31.5082 13.9722 31.744 14.1432C31.9799 14.3141 32.0709 14.4098 32.0253 14.6806C31.5476 17.4973 31.0573 21.3318 31.1337 23.646C31.1628 24.5719 31.2435 25.6242 31.6117 26.4383C31.6622 26.5873 31.7501 26.7214 31.8672 26.8281C31.9844 26.9348 32.127 27.0108 32.2819 27.0489C32.6294 27.1161 33.0411 26.9511 33.4074 26.5971C33.9845 26.015 34.4455 25.3315 34.7665 24.5821C34.7612 24.4906 34.7544 24.3864 34.7462 24.2721L34.7359 24.1297C34.7267 24.0069 34.7168 23.8742 34.7066 23.7334C34.5224 21.285 34.09 15.5496 34.8969 10.0299C35.4594 6.18932 36.529 3.02647 38.0785 0.628828C38.3039 0.297239 38.5253 0.124252 38.906 0.356307C39.3773 0.621106 39.7975 0.965574 40.1472 1.3739C40.3098 1.58196 40.4095 1.83098 40.4347 2.09231C40.8113 5.92275 39.9238 10.6486 39.1129 13.9398C38.2088 17.6133 36.9054 21.5151 35.6271 24.3644C35.7429 25.563 36.1918 26.9899 37.075 27.0589C37.1109 27.061 37.147 27.061 37.1826 27.0589C38.5895 27.0589 39.7417 24.8387 40.1803 23.8638C40.2257 23.1188 40.2651 22.382 40.3023 21.6697C40.3893 19.9661 40.4844 18.2036 40.6912 16.3027C40.9084 14.3467 41.1629 12.2605 41.5766 10.1968C42.2924 6.68795 43.6247 3.09379 45.139 0.582225C45.2715 0.356307 45.3873 0.246417 45.5259 0.213814C45.6087 0.203504 45.6928 0.20974 45.7731 0.232147C45.8535 0.254555 45.9284 0.292483 45.9934 0.344033ZM27.3674 9.19625C29.4129 9.1976 31.3963 9.20623 32.9957 9.22214C33.1115 9.22214 33.1653 9.22617 33.2023 9.29329C33.2398 9.36042 33.2023 9.46628 33.0824 9.64943C32.8758 9.96491 32.5343 10.4453 32.2715 10.7953C32.223 10.869 32.1538 10.9273 32.0723 10.9631C31.9907 10.9988 31.9004 11.0106 31.8123 10.9969C28.9678 10.9278 24.4559 10.8402 21.6427 10.8178C18.9372 10.7963 16.4978 10.7859 14.1809 10.872L13.9035 10.883H13.8207C11.6154 10.9725 8.87445 11.0843 6.82221 11.8701C6.11071 12.1428 4.90447 12.7778 4.82396 13.9988C4.75769 14.8843 5.3224 15.68 6.31129 16.1299C8.02416 16.9012 11.1914 17.1047 14.0649 17.2085C14.8158 17.233 15.5916 17.2472 16.3403 17.2595C17.3333 17.2777 18.3575 17.294 19.3546 17.3368C21.6115 17.4325 25.3869 17.5932 27.4555 18.8998C28.0431 19.2661 28.5125 19.7895 28.8085 20.4089C29.1045 21.0282 29.2151 21.7176 29.1271 22.3965C29.04 23.2149 28.7154 23.9914 28.192 24.6333C27.6657 25.2652 26.9884 25.7588 26.2206 26.0701C24.3877 26.8293 22.1577 27.1772 20.6103 27.336C17.9953 27.6047 15.3992 27.6454 12.7491 27.6678C11.2286 27.6847 9.47114 27.6876 7.68829 27.6881H6.16977C4.18684 27.6882 2.20391 27.68 0.22104 27.6638C0.103107 27.6619 0.0514498 27.6577 0.0140229 27.5905C-0.0230141 27.5234 0.0120736 27.4175 0.134101 27.2344C0.394271 26.8456 0.664668 26.4635 0.945017 26.0885C0.994172 26.0165 1.06354 25.96 1.14469 25.926C1.22584 25.8921 1.31528 25.882 1.40213 25.8971C4.25496 25.9661 8.75866 26.0519 11.5741 26.0741C14.3897 26.0966 16.9156 26.1086 19.3132 26.0089C22.3355 25.8848 24.4932 25.5613 25.9103 25.0199C26.5144 24.7898 27.9563 24.0938 28.3327 22.6265C28.6659 21.33 28.0286 20.3144 26.537 19.777C24.7189 19.1217 21.8762 19.0687 20.1173 19.0438L20.0043 19.0423H19.0132C18.4733 19.0404 17.861 19.0383 16.5865 19.0118C15.6887 18.9936 13.5848 18.9487 11.4045 18.6923C8.78751 18.3891 6.92357 17.872 5.86646 17.1678C5.31046 16.8128 4.84813 16.3329 4.51753 15.7676C4.20836 15.2132 4.05957 14.586 4.08732 13.9541C4.13702 12.5701 5.17133 11.4303 6.99609 10.7485C8.438 10.2113 10.3308 9.82031 12.6062 9.58844C15.4446 9.29751 18.2994 9.23844 20.4674 9.22214C22.4252 9.20554 24.3831 9.19691 26.3409 9.19625H27.3674ZM53.869 15.9508C52.8203 17.5199 52.2222 20.695 52.1312 22.4495C52.1249 22.5837 51.9719 25.7872 52.9939 26.7663C53.0879 26.8622 53.2023 26.9365 53.3289 26.9837C53.4556 27.0308 53.5913 27.0497 53.7263 27.039C54.498 26.983 55.1442 26.2109 55.7019 24.6824L55.7329 24.5966H55.7226C56.0386 23.6883 56.2556 22.7495 56.37 21.7961C55.9852 21.3931 55.737 20.4914 55.7101 19.3842C55.6771 18.275 55.8756 17.1708 56.2936 16.1401C56.2893 15.6923 56.1819 14.9169 55.524 14.756C54.9384 14.6177 54.1875 15.4765 53.869 15.9508ZM79.2934 10.545C78.6478 13.8162 78.2331 17.1273 78.0522 20.4547C77.9836 21.6869 78.0085 22.9224 78.1267 24.1509C78.2819 25.4758 78.5569 26.3591 78.9542 26.7663C79.088 26.917 79.2767 27.0099 79.4795 27.0248L79.523 27.0267H79.5727C80.3433 27.0267 81.3056 24.909 81.8454 22.8405L81.8643 22.7663L81.8516 22.5956C81.6181 19.3342 81.8232 15.3827 82.4411 10.8402L82.4752 10.5918L79.2934 10.545ZM72.8183 14.5464H72.7813C72.4357 14.5464 72.1544 14.9088 72.0468 15.0695C70.4932 17.3916 70.098 22.2316 70.4994 24.6943C71.9723 22.5185 73.0316 19.8706 73.3357 17.6074C73.4501 16.8418 73.4674 16.0653 73.3873 15.2955C73.3273 14.8436 73.139 14.5993 72.8183 14.5464ZM89.8191 14.5504H89.8025C89.4544 14.5504 89.2002 14.9382 89.1037 15.0927L89.093 15.11V15.1183C88.1144 16.6978 87.5706 18.7899 87.5579 21.0165C87.554 22.195 87.5869 23.52 87.8807 24.4338C89.0413 22.5877 89.846 20.7215 90.2121 19.0383C90.4191 18.0816 90.6341 16.2824 90.4604 15.277C90.3901 14.8599 90.1544 14.5932 89.8191 14.5504ZM39.1251 2.10324L39.0984 2.10477C38.9914 2.11014 38.8928 2.16231 38.8294 2.24727C38.5916 2.5619 38.3895 2.90112 38.2265 3.25891L38.1737 3.37877L38.1105 3.51168C37.0021 5.86349 36.3335 8.44773 35.9477 11.8436C35.5236 15.5783 35.5111 19.4189 35.5462 23.0294C36.9179 19.2091 37.9212 16.1115 38.6495 12.5213C39.2431 9.59247 39.8162 6.19354 39.5637 3.20387C39.544 2.96664 39.506 2.73122 39.4501 2.49965C39.3982 2.27987 39.2906 2.13718 39.152 2.10458L39.1251 2.10324ZM46.3181 2.10688H46.2768C46.2023 2.11696 46.1313 2.14389 46.0692 2.18555C46.0071 2.22721 45.9556 2.28247 45.9189 2.34699C45.5903 2.80544 45.3129 3.29738 45.0914 3.81431C43.393 7.67524 42.2056 13.0647 41.7815 16.6935C41.5374 18.7677 41.4587 20.4528 41.4111 21.4704C41.3975 21.7757 41.385 22.0036 41.3741 22.1543C42.762 19.0992 44.2019 15.8369 45.1472 12.4703C46.1113 8.9596 46.6203 6.27716 46.7029 4.27842C46.7281 3.65442 46.6865 3.02954 46.5787 2.41412C46.5249 2.2371 46.4361 2.12721 46.3181 2.10688ZM32.0834 3.48866C32.1639 3.47597 32.2463 3.48288 32.3235 3.50879C32.4006 3.5347 32.4701 3.57882 32.5259 3.63729C32.6958 3.78601 32.8307 3.96939 32.9212 4.17466C33.0175 4.4048 33.07 4.65028 33.0764 4.89921C33.0803 5.3591 32.9563 6.39107 32.8012 6.74721L32.7834 6.78729C32.6885 6.99979 32.5965 7.19195 32.4329 7.2399C32.4076 7.24277 32.3819 7.24277 32.3563 7.2399C32.2506 7.23218 32.1494 7.1947 32.0647 7.13192C31.877 7.01082 31.7205 6.84846 31.6076 6.65765C31.5169 6.45725 31.4609 6.24334 31.4419 6.02477C31.4218 5.4536 31.4817 4.88243 31.6199 4.32732C31.7419 3.91001 31.8598 3.56001 32.0834 3.48866Z" fill="#231F20"/>
</g>
<defs>
<clipPath id="clip0_2261_819">
<rect width="100" height="28" fill="white"/>
</clipPath>
</defs>
</svg>
